<?xml version="1.0" encoding="UTF-8" standalone="no"?>
<!DOCTYPE svg PUBLIC "-//W3C//DTD SVG 1.1//EN" "http://www.w3.org/Graphics/SVG/1.1/DTD/svg11.dtd">
<svg width="100%" height="100%" viewBox="0 0 100 100" version="1.1" xmlns="http://www.w3.org/2000/svg" xmlns:xlink="http://www.w3.org/1999/xlink" xml:space="preserve" xmlns:serif="http://www.serif.com/" style="fill-rule:evenodd;clip-rule:evenodd;">
    <circle cx="50" cy="50" r="45" style="fill:rgb(169,169,169);stroke:black;stroke-width:2px;"/>
    <path d="M70,37.5C70,36.12 68.88,35 67.5,35L32.5,35C31.12,35 30,36.12 30,37.5L30,57.5C30,58.88 31.12,60 32.5,60L67.5,60C68.88,60 70,58.88 70,57.5L70,37.5Z" style="fill-opacity:0.63;stroke:black;stroke-width:2px;"/>
    <g transform="matrix(1,0,0,1.6,0,-36)">
        <path d="M50,60L50,65" style="fill:none;fill-rule:nonzero;stroke:black;stroke-width:2px;"/>
    </g>
    <g transform="matrix(-8.94715e-15,-1,3.2,1.97758e-15,-150,118)">
        <path d="M50,60L50,65" style="fill:none;fill-rule:nonzero;stroke:black;stroke-width:0.87px;"/>
    </g>
</svg>
